# xmcd CD database file generated by MAGIX-FreeDB-MP3_Maker_15 v2.0beta1
# 
# Track frame offsets:
#      150
#      9660
#      21337
#      31900
#      42117
#      53612
#      65010
#      76482
#      87745
#      97735
#      108655
#      119080
#      130432
#      141817
#      152792
#      163632
#      173797
#      183817
#      193575
#      204017
#      214610
#      225965
#      237787
#      249542
# 
# Disc length: 3476 seconds
# 
# Revision: 3 
# Processed by: cddbd v1.5.2PL0 Copyright (c) Steve Scherf et al.
# Submitted via: MAGIX-FreeDB-MP3_Maker_15 v2.0beta1
# 
DISCID=3e0d9218
DTITLE=Chubby Checker - The Best Of - Cameo-Parkway - 1959-1963
DYEAR=2005
DGENRE=Oldies
TTITLE0=Chubby Checker - Dancin' Party
TTITLE1=Chubby Checker - The Twist
TTITLE2=Chubby Checker - Toot
TTITLE3=Chubby Checker - The Class
TTITLE4=Chubby Checker - Twistin' U.S.A.
TTITLE5=Chubby Checker - The Hucklebuck
TTITLE6=Chubby Checker - Whole Lotta Shakin' Going On
TTITLE7=Chubby Checker - Pony Time
TTITLE8=Chubby Checker - Dance The Mess Around
TTITLE9=Chubby Checker - Good, Good Lovin'
TTITLE10=Chubby Checker - Let's Twist Again
TTITLE11=Chubby Checker - The Fly
TTITLE12=Chubby Checker - Slow Twistin'
TTITLE13=Chubby Checker - Popeye The Hitchhiker
TTITLE14=Chubby Checker - Limbo Rock
TTITLE15=Chubby Checker - Let's Limbo Some More
TTITLE16=Chubby Checker - Hooka Tooka
TTITLE17=Chubby Checker - Loddy Lo
TTITLE18=Chubby Checker - Hey, Bobba Needle
TTITLE19=Chubby Checker - Birdland
TTITLE20=Chubby Checker - Surf Party
TTITLE21=Chubby Checker - Twist It Up
TTITLE22=Chubby Checker - Twistin' Round The World
TTITLE23=Chubby Checker - Jingle Bell Rock (& Bobby Rydell)
EXTD=
EXTT0=
EXTT1=
EXTT2=
EXTT3=
EXTT4=
EXTT5=
EXTT6=
EXTT7=
EXTT8=
EXTT9=
EXTT10=
EXTT11=
EXTT12=
EXTT13=
EXTT14=
EXTT15=
EXTT16=
EXTT17=
EXTT18=
EXTT19=
EXTT20=
EXTT21=
EXTT22=
EXTT23=
PLAYORDER=
